<?xml version="1.0" encoding="iso-8859-1"?>
<!-- Generator: Adobe Illustrator 16.0.0, SVG Export Plug-In . SVG Version: 6.00 Build 0)  -->
<!DOCTYPE svg PUBLIC "-//W3C//DTD SVG 1.1//EN" "http://www.w3.org/Graphics/SVG/1.1/DTD/svg11.dtd">
<svg xmlns="http://www.w3.org/2000/svg" xmlns:xlink="http://www.w3.org/1999/xlink" version="1.1" id="Capa_1" x="0px" y="0px" width="512px" height="512px" viewBox="0 0 512 512" style="enable-background:new 0 0 512 512;" xml:space="preserve">
<g>
	<path d="M490.594,80.054C418.777,69.729,339.428,64,256.001,64c-83.43,0-162.778,5.729-234.597,16.054   C7.639,133.917,0,193.429,0,256c0,62.57,7.639,122.083,21.404,175.945C93.223,442.271,172.572,448,256.001,448   c83.427,0,162.776-5.729,234.593-16.055C504.359,378.083,512,318.57,512,256C512,193.429,504.359,133.917,490.594,80.054z    M192.001,352V160l160.001,96L192.001,352z" fill="#FFFFFF"/>
</g>
<g>
</g>
<g>
</g>
<g>
</g>
<g>
</g>
<g>
</g>
<g>
</g>
<g>
</g>
<g>
</g>
<g>
</g>
<g>
</g>
<g>
</g>
<g>
</g>
<g>
</g>
<g>
</g>
<g>
</g>
</svg>
